# xmcd
#
# Track frame offsets: 
#        150
#        38793
#        86021
#        117481
#        156688
#        192327
#        210824
#        257398
#
# Disc length: 3747 seconds
#
# Revision: 1
# Processed by: cddbd v1.5.2PL0 Copyright (c) Steve Scherf et al.
# Submitted via: ExactAudioCopyFreeDBPlugin 1.0
#
DISCID=670ea108
DTITLE=Miles Davis - Live at Newport 1966 and 1967
DYEAR=2010
DGENRE=Jazz
TTITLE0=Introduction into Gingerbread Boy
TTITLE1=All Blues
TTITLE2=Stella by Starlight [incomplete]
TTITLE3=Gingerbread Boy
TTITLE4=Footprints
TTITLE5='Round Midnight [incomplete]
TTITLE6=Introduction into Footprints
TTITLE7='Round Midnight [incomplete]
EXTD=YEAR: 2010
EXTT0=
EXTT1=
EXTT2=
EXTT3=
EXTT4=
EXTT5=
EXTT6=
EXTT7=
PLAYORDER=
